<?xml version="1.0" encoding="utf-8"?>
<!-- Generator: Adobe Illustrator 28.0.0, SVG Export Plug-In . SVG Version: 6.00 Build 0)  -->
<svg version="1.1" id="Layer_1" xmlns="http://www.w3.org/2000/svg" xmlns:xlink="http://www.w3.org/1999/xlink" x="0px" y="0px"
	 viewBox="0 0 255 36" overflow="visible" style="enable-background:new 0 0 255 36;" xml:space="preserve">
<style type="text/css">
	.st0{fill:#E84566;}
	.st1{fill:#0F88CA;}
	.st2{fill:#DEBF00;}
	.st3{fill:#007F65;}
	.st4{fill:#FFFFFF;}
	.st5{fill:#2B2C34;}
</style>
<!-- coloured mark shifted left to x=0 -->
<g transform="translate(-206.9, 0)">
	<polygon class="st0" points="239.2,0 239.2,10.8 248.2,10.8 	"/>
	<polygon class="st0" points="237.4,10.8 237.4,0 228.4,10.8 	"/>
	<polygon class="st1" points="239.2,23.4 248.2,12.6 239.2,12.6 	"/>
	<polygon class="st1" points="228.4,25.2 228.4,30.6 228.4,36 233,30.6 237.4,25.2 237.4,12.6 228.4,12.6 	"/>
	<polygon class="st2" points="215.9,10.8 215.9,0 206.9,10.8 	"/>
	<polygon class="st2" points="217.7,10.8 226.7,10.8 217.7,0 	"/>
	<polygon class="st3" points="215.9,23.4 215.9,12.6 206.9,12.6 	"/>
	<polygon class="st3" points="217.7,25.2 222.1,30.6 226.7,36 226.7,30.6 226.7,25.2 226.7,12.6 217.7,12.6 	"/>
</g>
<!-- text shifted right to follow the mark (mark width 41.3 + gap 14.5 = 55.8) -->
<g transform="translate(55.8, 0)">
	<polygon class="st4" points="152.1,27.2 130.7,0.8 130.5,0.6 128.7,0.6 128.7,35.1 132.3,35.1 132.3,8.3 154.2,35.1 158.7,35.1
		152.9,28.1 	"/>
	<polygon class="st4" points="138.6,8.6 160,35 160.2,35.1 162,35.1 162,0.6 158.5,0.6 158.5,27.5 136.5,0.6 132,0.6 137.8,7.7 	"/>
	<polygon class="st4" points="104.5,27.2 83,0.8 82.9,0.6 81,0.6 81,35.1 84.6,35.1 84.6,8.3 106.5,35.1 111,35.1 105.2,28.1 	"/>
	<polygon class="st4" points="91,8.6 112.4,35 112.5,35.1 114.3,35.1 114.3,0.6 110.8,0.6 110.8,27.5 88.9,0.6 84.4,0.6 90.2,7.7 	"/>
	<polygon class="st4" points="5.4,0.6 4.9,0.6 4.9,6.7 8.5,11.1 8.5,0.6 8,0.6 	"/>
	<polygon class="st4" points="4.9,35.2 8.5,35.2 8.5,12.8 4.9,8.4 	"/>
	<polygon class="st4" points="0.7,0.6 0,0.6 3.6,5 3.6,0.6 	"/>
	<polygon class="st4" points="0,35.2 3.6,35.2 3.6,6.7 0,2.3 	"/>
	<polygon class="st4" points="122.7,0.6 122.2,0.6 122.2,6.7 125.8,11.1 125.8,0.6 125.3,0.6 	"/>
	<polygon class="st4" points="122.2,35.2 125.8,35.2 125.8,12.8 122.2,8.4 	"/>
	<polygon class="st4" points="117.9,0.6 117.3,0.6 120.9,5 120.9,0.6 	"/>
	<polygon class="st4" points="117.3,35.2 120.9,35.2 120.9,6.7 117.3,2.3 	"/>
	<path class="st4" d="M38.9,27.7c-0.3,0.3-0.9,0.9-1.3,1.2l-0.4,0.3l2.1,2.6l0.4-0.3c0.5-0.4,1-0.8,1.4-1.3l0.3-0.3l-2.2-2.6
		L38.9,27.7z"/>
	<path class="st4" d="M19.6,6.9c0.5-0.4,0.9-0.7,1.4-1l0.5-0.3L19.4,3L19,3.2c-0.5,0.3-1,0.7-1.5,1l-0.4,0.4l2.1,2.6L19.6,6.9z"/>
	<path class="st4" d="M38,32.6l0.5-0.3l-2.1-2.6l-0.4,0.2c-2.2,1.3-4.6,1.9-7.1,1.9c-10.2,0-13.9-7.5-14-13.9c0-3.8,1.2-7.2,3.3-9.7
		L18.5,8l-2.1-2.6l-0.4,0.5C13,9,11.4,13.4,11.5,18.1c0,8.5,5.4,17.1,17.4,17.1C32,35.2,35.2,34.3,38,32.6"/>
	<path class="st4" d="M28.8,0.6c-2.9,0-5.5,0.6-7.8,1.6l-0.6,0.3l2.2,2.6l0.3-0.1c1.8-0.7,3.8-1.1,5.9-1.1c3.7,0,7.3,1.4,9.9,4
		L39,8.2l2.5-2.1l-0.4-0.4C37.9,2.4,33.5,0.6,28.8,0.6"/>
	<path class="st4" d="M192.4,27.7c-0.3,0.3-0.9,0.9-1.3,1.2l-0.4,0.3l2.1,2.6l0.4-0.3c0.5-0.4,1-0.8,1.4-1.3l0.3-0.3l-2.2-2.6
		L192.4,27.7z"/>
	<path class="st4" d="M173.1,6.9c0.4-0.4,0.9-0.7,1.4-1l0.6-0.3L172.9,3l-0.4,0.3c-0.5,0.3-1,0.7-1.5,1l-0.4,0.4l2.1,2.6L173.1,6.9z"/>
	<path class="st4" d="M191.5,32.6l0.5-0.3l-2.1-2.6l-0.4,0.2c-2.2,1.3-4.7,1.9-7.1,1.9c-10.2,0-13.9-7.5-14-13.9
		c0-3.8,1.2-7.2,3.3-9.7L172,8l-2.1-2.6l-0.4,0.5c-2.9,3.2-4.5,7.5-4.5,12.3c0,8.5,5.4,17.1,17.4,17.1
		C185.6,35.2,188.7,34.3,191.5,32.6"/>
	<path class="st4" d="M182.3,0.6c-2.9,0-5.5,0.6-7.8,1.6l-0.6,0.3l2.2,2.6l0.4-0.1c1.8-0.7,3.8-1.1,5.9-1.1c3.8,0,7.3,1.4,9.9,4
		l0.3,0.3l2.5-2.1l-0.4-0.4C191.4,2.4,187,0.6,182.3,0.6"/>
	<path class="st4" d="M71,27.9c-0.4,0.4-0.8,0.8-1.2,1.2l-0.3,0.3l2.2,2.6l0.3-0.3c0.5-0.4,1-0.8,1.4-1.2l0.3-0.3l-2.2-2.7L71,27.9z"/>
	<path class="st4" d="M52,7.3c0.4-0.4,0.8-0.7,1.3-1.1l0.5-0.3l-2.1-2.6l-0.4,0.3c-0.5,0.4-1,0.7-1.4,1.1L49.4,5l2.2,2.7L52,7.3z"/>
	<path class="st4" d="M61.3,0.6c-3.1,0-5.9,0.6-8.2,1.8l-0.5,0.3l2.2,2.6L55,5.2c1.8-0.9,3.9-1.3,6.3-1.3c9.3,0,13.4,7,13.4,13.9
		c0,3.1-0.9,6.1-2.4,8.4l-0.2,0.3l2.2,2.7l0.4-0.5c2.2-3,3.4-6.8,3.4-10.9c0-5-1.7-9.5-4.8-12.7C70.3,2.2,66.2,0.6,61.3,0.6"/>
	<path class="st4" d="M68.1,30.1c-2,1.1-4.3,1.7-6.8,1.7c-9.2,0-13.4-7.2-13.4-14c0-3.5,0.9-6.6,2.7-9l0.3-0.3l-2.2-2.7l-0.4,0.5
		c-2.5,3-3.9,7.1-3.9,11.5c0,8.3,5.3,17.3,16.9,17.3c3.3,0,6.3-0.7,8.9-2.2l0.6-0.3l-2.2-2.7L68.1,30.1z"/>
</g>
</svg>
