<svg width="256" height="32" viewBox="0 0 256 32" fill="none" xmlns="http://www.w3.org/2000/svg"><path d="M3.67387e-06 0.00664405C4.08944 0.0102231 8.17885 -0.000510515 12.2719 0.0102266C12.7889 6.09099 16.1351 11.7494 20.9641 15.4358C25.7932 19.2189 32.0225 20.9654 38.1224 20.7435C41.7919 20.8867 45.6587 20.2138 49.1235 21.7564C53.2273 23.4135 56.2717 27.5293 56.2575 31.9995C50.4591 31.9887 44.6643 31.9995 38.8656 31.996C36.0905 31.971 33.3078 32.0998 30.5468 31.7598C21.5853 30.7862 12.9541 26.4199 7.18433 19.4694C2.62456 14.0722 -0.0035867 7.07523 3.67387e-06 0.00664405Z" fill="white"/><path d="M26.102 0.00305808C31.6705 0.0102161 37.243 0.00305064 42.8116 0.00662966C46.3984 0.0316829 50.0102 -0.150841 53.5612 0.471911C61.3918 1.70309 68.8381 5.52909 74.1879 11.3879C79.3327 16.9426 82.3882 24.412 82.3594 31.996C78.2701 31.996 74.1806 31.996 70.0911 31.996C69.5994 26.1801 66.5188 20.7292 62.0165 17.0464C57.1981 13.0307 50.8431 11.0623 44.5996 11.252C40.7436 11.0873 36.6576 11.8461 33.035 10.1496C29.0389 8.44241 26.0984 4.39453 26.102 0.00305808Z" fill="white"/><path d="M111.75 7.24342C113.732 5.11748 116.834 4.54485 119.627 4.7059C122.424 4.81327 125.228 5.71876 127.397 7.52259C126.514 8.58196 125.634 9.64496 124.751 10.7043C122.823 9.16893 120.327 8.35291 117.861 8.5104C116.823 8.58199 115.567 8.97209 115.233 10.0816C114.899 11.0193 115.732 11.8139 116.561 12.0715C119.667 13.1953 123.265 13.1381 125.986 15.2103C128.643 17.186 128.359 21.5309 125.957 23.596C123.95 25.3533 121.132 25.747 118.554 25.6933C115.323 25.6611 112.016 24.6733 109.592 22.4758C110.454 21.3627 111.337 20.2675 112.192 19.1508C114.5 21.2661 117.804 22.3505 120.902 21.7063C121.968 21.4665 123.117 20.6791 123.085 19.4694C122.888 18.3205 121.678 17.8731 120.701 17.5725C117.76 16.6885 114.414 16.5954 111.951 14.5554C109.819 12.7515 109.851 9.20471 111.75 7.24342Z" fill="white"/><path d="M144.918 5.01728C148.817 4.12253 153.269 4.82044 156.332 7.51902C159.183 9.95276 160.296 14.0293 159.437 17.6262C158.698 21.1372 155.836 23.9682 152.451 25.0312C148.587 26.2552 144.067 25.8544 140.735 23.4564C136.947 20.8223 135.594 15.5074 137.31 11.2949C138.541 8.06304 141.583 5.75814 144.918 5.01728ZM146.29 8.73947C141.902 9.61992 140.168 15.2962 142.455 18.8574C144.559 22.3648 150.006 22.8122 152.885 20.0349C155.578 17.4544 155.499 12.5798 152.684 10.121C150.964 8.60706 148.472 8.22767 146.29 8.73947Z" fill="white"/><path d="M239.259 8.05587C240.465 6.13753 242.698 5.13895 244.881 4.82758C248.586 4.33367 252.611 5.08527 255.526 7.52975C254.622 8.57842 253.746 9.64856 252.873 10.7187C250.877 9.10811 248.238 8.28135 245.678 8.54261C244.619 8.64998 243.33 9.262 243.298 10.4789C243.24 11.4201 244.217 11.9212 244.981 12.1825C248.109 13.2133 251.721 13.2132 254.356 15.4108C256.833 17.526 256.37 21.7922 253.907 23.7392C251.721 25.5251 248.726 25.7971 246.008 25.6683C242.989 25.5466 239.991 24.4943 237.711 22.4901C238.569 21.3734 239.449 20.2711 240.318 19.158C242.576 21.2231 245.772 22.2932 248.816 21.7528C249.854 21.5381 251.021 20.9368 251.189 19.7772C251.293 18.7285 250.295 18.0664 249.423 17.7729C246.4 16.6992 242.913 16.7386 240.275 14.7236C238.264 13.2025 237.912 10.121 239.259 8.05587Z" fill="white"/><path d="M169.631 25.3247C169.623 18.5424 169.584 11.7566 169.652 4.97433C171.221 4.9958 172.794 4.98507 174.37 4.98507C174.348 10.486 174.366 15.987 174.359 21.488C177.468 21.4951 180.581 21.4951 183.69 21.488C183.687 22.7657 183.69 24.047 183.69 25.3282C179.005 25.3175 174.32 25.3211 169.631 25.3247Z" fill="white"/><path d="M192.795 4.98507C194.397 4.98864 196.005 4.9815 197.61 4.99223C197.603 9.09737 197.592 13.2061 197.61 17.3113C197.567 19.1437 198.73 20.9583 200.522 21.4987C202.497 22.1143 204.953 21.9854 206.514 20.4966C207.451 19.5589 207.793 18.2024 207.771 16.9104C207.767 12.9376 207.775 8.96138 207.767 4.98866C209.372 4.98866 210.977 4.98507 212.586 4.98866C212.55 9.33718 212.643 13.6893 212.539 18.0342C212.457 21.1265 210.374 24.047 207.387 24.9811C204.127 26.0154 200.425 26.0047 197.255 24.6661C194.605 23.5566 192.907 20.8008 192.828 17.9734C192.752 13.6463 192.824 9.31568 192.795 4.98507Z" fill="white"/><path d="M223.54 25.3247C223.547 18.546 223.547 11.7673 223.543 4.98864C225.127 4.98864 226.71 4.98507 228.301 4.99223C228.294 11.7709 228.301 18.546 228.297 25.3247C226.71 25.3211 225.127 25.3211 223.54 25.3247Z" fill="white"/></svg>
